<svg xmlns="http://www.w3.org/2000/svg" viewBox="0 0 900 1125" role="img" aria-labelledby="title desc">
  <title id="title">처음 만난 날 placeholder</title>
  <desc id="desc">따뜻한 해 질 녘의 두 잔과 작은 꽃을 그린 placeholder 이미지</desc>
  <rect width="900" height="1125" fill="#fff4e8"/>
  <rect x="72" y="72" width="756" height="981" rx="62" fill="#fffdf8"/>
  <path d="M0 778c157-80 313-97 470-52 153 45 287 29 430-70v469H0Z" fill="#f7d8d0"/>
  <circle cx="690" cy="245" r="92" fill="#f3b8ad"/>
  <path d="M280 420c60-88 168-92 230 0" fill="none" stroke="#d96f85" stroke-width="20" stroke-linecap="round"/>
  <rect x="250" y="496" width="126" height="190" rx="28" fill="#adc8d3"/>
  <rect x="436" y="496" width="126" height="190" rx="28" fill="#93a889"/>
  <path d="M382 505c22 27 38 27 58 0" fill="none" stroke="#3a2b2b" stroke-width="12" stroke-linecap="round"/>
  <path d="M284 805c88-52 188-52 300 0" fill="none" stroke="#d7a94d" stroke-width="18" stroke-linecap="round"/>
  <text x="450" y="935" text-anchor="middle" fill="#3a2b2b" font-family="Georgia, serif" font-size="48">first meeting</text>
</svg>

