<svg width="334" height="334" viewBox="0 0 334 334" fill="none" xmlns="http://www.w3.org/2000/svg">
    <mask id="mask0_75_3866" style="mask-type:luminance" maskUnits="userSpaceOnUse" x="0" y="0"
        width="334" height="334">
        <path d="M0 142.627L142.627 -4.21468e-07L333.449 190.823L190.823 333.449L0 142.627Z"
            fill="white" />
    </mask>
    <g mask="url(#mask0_75_3866)">
        <path fill-rule="evenodd" clip-rule="evenodd"
            d="M271.604 155.502C280.435 166.621 285.18 180.655 284.963 195.022C284.664 214.737 275.776 233.469 258.547 250.698C245.39 263.856 229.196 272.55 210.415 276.542C196.149 279.572 185.674 278.596 185.582 278.588C185.453 278.575 185.325 278.567 185.195 278.563C184.876 278.553 153.124 277.386 134.954 259.216C124.496 248.758 119.78 238.474 120.933 228.65C121.509 223.746 123.484 219.791 125.335 217.042L151.647 243.353C153.713 245.419 157.361 245.122 159.794 242.688C162.228 240.255 162.527 236.605 160.461 234.539L130.111 204.189L130.029 204.107L50.2372 124.315C47.8168 121.895 46.6258 118.461 46.9682 114.897C47.2729 111.725 48.7473 108.739 51.1408 106.455C56.1592 101.68 64.0591 101.615 68.7516 106.308L137.73 175.286C139.796 177.352 143.443 177.054 145.879 174.619C148.312 172.185 148.61 168.538 146.544 166.471L135.549 155.476C131.199 150.717 131.633 143.154 136.547 138.24C141.582 133.204 149.481 132.912 154.158 137.588L168.953 152.383C171.019 154.449 174.667 154.152 177.1 151.718C179.534 149.285 179.833 145.635 177.767 143.569C173.091 138.893 173.382 130.992 178.417 125.957C183.451 120.923 191.351 120.632 196.028 125.308L207.93 137.21C208.397 137.677 208.962 138.036 209.596 138.271L210.385 138.561C212.661 139.401 215.472 138.519 217.275 136.39C219.076 134.266 219.424 131.422 218.131 129.425C215.024 124.629 215.921 117.996 220.264 113.653C225.238 108.679 233.01 108.335 237.706 112.838L271.604 155.502ZM212.786 106.173C209.478 109.481 207.152 113.416 205.876 117.526L204.846 116.496C196.044 107.693 180.833 108.583 170.939 118.477C167.607 121.809 165.295 125.745 164.033 129.833L162.976 128.776C154.175 119.975 138.964 120.865 129.069 130.76C125.738 134.091 123.417 138.004 122.142 142.068L77.5695 97.496C68.869 88.7955 53.7763 89.3451 43.9229 98.7211C39.0639 103.34 36.0714 109.356 35.462 115.675C34.8226 122.338 36.9948 128.7 41.4263 133.132L117.746 209.452C114.509 213.65 110.571 220.315 109.491 228.864C107.815 242.129 113.416 255.306 126.141 268.031C146.356 288.246 179.7 289.995 182.793 290.112C184.462 290.261 195.552 291.06 210.571 287.928C231.82 283.5 250.997 273.212 266.029 258.18C285.913 238.297 296.172 216.474 296.525 193.313C296.777 176.578 291.3 160.292 281.1 147.453L247.037 104.573C246.931 104.439 246.816 104.311 246.695 104.189C237.894 95.3882 222.683 96.2781 212.787 106.174L212.786 106.173Z"
            fill="#D98FA3" />
    </g>
</svg>